# xmcd
#
# Track frame offsets:
#	200
#	19215
#	39080
#	51910
#	71785
#	92400
#	105350
#
# Disc length: 1749 seconds
#
# Revision: 0
# Processed by: cddbd v1.5.1PL0 Copyright (c) Steve Scherf et al.
# Submitted via: dBpowerAMP V4.0
#
DISCID=4e06d307
DTITLE=Gary Moore - 5. Sept. 1992 Parken
DYEAR=1992
DGENRE=Blues
TTITLE0=Still Got The Blues (For You)
TTITLE1=Oh Pretty Woman
TTITLE2=Too Tired
TTITLE3=Cold Day In Hell
TTITLE4=Story Of The Blues
TTITLE5=Since I Met You Baby
TTITLE6=The Blues Is Alright
EXTD=This is a promo cd, released in 1992 by Virgin, when the danish national stadium PARKEN was re-opened and this was celebrated with a concert with Gary Moore on Sept. 5, 1992 ...:::© STRIKER'S :::...
EXTT0=
EXTT1=
EXTT2=
EXTT3=
EXTT4=
EXTT5=
EXTT6=
PLAYORDER=
